<?xml version="1.0" encoding="UTF-8" standalone="no"?>
<!DOCTYPE svg PUBLIC "-//W3C//DTD SVG 1.1//EN"
 "http://www.w3.org/Graphics/SVG/1.1/DTD/svg11.dtd">
<!-- Generated by graphviz version 2.40.1 (20161225.0304)
 -->
<!-- Title: rtree Pages: 1 -->
<svg width="1286pt" height="296pt"
 viewBox="0.00 0.00 1286.00 296.29" xmlns="http://www.w3.org/2000/svg" xmlns:xlink="http://www.w3.org/1999/xlink">
<g id="graph0" class="graph" transform="scale(1 1) rotate(0) translate(4 292.2872)">
<title>rtree</title>
<polygon fill="#ffffff" stroke="transparent" points="-4,4 -4,-292.2872 1282,-292.2872 1282,4 -4,4"/>
<!-- 0 -->
<g id="node1" class="node">
<title>0</title>
<ellipse fill="#836fff" stroke="#000000" cx="638" cy="-259.6897" rx="28.6953" ry="28.6953"/>
<text text-anchor="middle" x="638" y="-255.9897" font-family="Times,serif" font-size="14.00" fill="#000000">1234</text>
</g>
<!-- 1 -->
<g id="node2" class="node">
<title>1</title>
<ellipse fill="#836fff" stroke="#000000" cx="208" cy="-171.0444" rx="24.0958" ry="24.0958"/>
<text text-anchor="middle" x="208" y="-167.3444" font-family="Times,serif" font-size="14.00" fill="#000000">423</text>
</g>
<!-- 0&#45;&gt;1 -->
<g id="edge1" class="edge">
<title>0&#45;&gt;1</title>
<path fill="none" stroke="#000000" d="M609.7865,-253.8735C533.5457,-238.1563 323.6297,-194.8817 241.5334,-177.9574"/>
<polygon fill="#000000" stroke="#000000" points="242.2223,-174.5259 231.7215,-175.9346 240.8089,-181.3817 242.2223,-174.5259"/>
</g>
<!-- 11 -->
<g id="node12" class="node">
<title>11</title>
<ellipse fill="#836fff" stroke="#000000" cx="530" cy="-171.0444" rx="24.0958" ry="24.0958"/>
<text text-anchor="middle" x="530" y="-167.3444" font-family="Times,serif" font-size="14.00" fill="#000000">143</text>
</g>
<!-- 0&#45;&gt;11 -->
<g id="edge11" class="edge">
<title>0&#45;&gt;11</title>
<path fill="none" stroke="#000000" d="M615.884,-241.5371C598.7587,-227.4809 574.9681,-207.9538 556.7679,-193.0152"/>
<polygon fill="#000000" stroke="#000000" points="558.7933,-190.1497 548.843,-186.5106 554.3522,-195.5605 558.7933,-190.1497"/>
</g>
<!-- 21 -->
<g id="node22" class="node">
<title>21</title>
<ellipse fill="#836fff" stroke="#000000" cx="746" cy="-171.0444" rx="24.0958" ry="24.0958"/>
<text text-anchor="middle" x="746" y="-167.3444" font-family="Times,serif" font-size="14.00" fill="#000000">124</text>
</g>
<!-- 0&#45;&gt;21 -->
<g id="edge21" class="edge">
<title>0&#45;&gt;21</title>
<path fill="none" stroke="#000000" d="M660.116,-241.5371C677.2413,-227.4809 701.0319,-207.9538 719.2321,-193.0152"/>
<polygon fill="#000000" stroke="#000000" points="721.6478,-195.5605 727.157,-186.5106 717.2067,-190.1497 721.6478,-195.5605"/>
</g>
<!-- 31 -->
<g id="node32" class="node">
<title>31</title>
<ellipse fill="#836fff" stroke="#000000" cx="1070" cy="-171.0444" rx="24.0958" ry="24.0958"/>
<text text-anchor="middle" x="1070" y="-167.3444" font-family="Times,serif" font-size="14.00" fill="#000000">123</text>
</g>
<!-- 0&#45;&gt;31 -->
<g id="edge31" class="edge">
<title>0&#45;&gt;31</title>
<path fill="none" stroke="#000000" d="M666.3447,-253.8735C743.0301,-238.1378 954.3283,-194.78 1036.6009,-177.8978"/>
<polygon fill="#000000" stroke="#000000" points="1037.3362,-181.3199 1046.4285,-175.8812 1035.9291,-174.4628 1037.3362,-181.3199"/>
</g>
<!-- 2 -->
<g id="node3" class="node">
<title>2</title>
<ellipse fill="#836fff" stroke="#000000" cx="72" cy="-91.4983" rx="19.4965" ry="19.4965"/>
<text text-anchor="middle" x="72" y="-87.7983" font-family="Times,serif" font-size="14.00" fill="#000000">32</text>
</g>
<!-- 1&#45;&gt;2 -->
<g id="edge2" class="edge">
<title>1&#45;&gt;2</title>
<path fill="none" stroke="#000000" d="M187.048,-158.7896C163.0256,-144.739 123.6379,-121.7012 97.7615,-106.5661"/>
<polygon fill="#000000" stroke="#000000" points="99.2918,-103.4065 88.8928,-101.3788 95.7576,-109.4488 99.2918,-103.4065"/>
</g>
<!-- 5 -->
<g id="node6" class="node">
<title>5</title>
<ellipse fill="#836fff" stroke="#000000" cx="179" cy="-91.4983" rx="19.4965" ry="19.4965"/>
<text text-anchor="middle" x="179" y="-87.7983" font-family="Times,serif" font-size="14.00" fill="#000000">43</text>
</g>
<!-- 1&#45;&gt;5 -->
<g id="edge5" class="edge">
<title>1&#45;&gt;5</title>
<path fill="none" stroke="#000000" d="M199.612,-148.0364C196.3688,-139.1405 192.6263,-128.8749 189.2277,-119.5526"/>
<polygon fill="#000000" stroke="#000000" points="192.4282,-118.1127 185.7147,-109.9164 185.8516,-120.5104 192.4282,-118.1127"/>
</g>
<!-- 8 -->
<g id="node9" class="node">
<title>8</title>
<ellipse fill="#836fff" stroke="#000000" cx="236" cy="-91.4983" rx="19.4965" ry="19.4965"/>
<text text-anchor="middle" x="236" y="-87.7983" font-family="Times,serif" font-size="14.00" fill="#000000">42</text>
</g>
<!-- 1&#45;&gt;8 -->
<g id="edge8" class="edge">
<title>1&#45;&gt;8</title>
<path fill="none" stroke="#000000" d="M216.0988,-148.0364C219.2301,-139.1405 222.8435,-128.8749 226.125,-119.5526"/>
<polygon fill="#000000" stroke="#000000" points="229.498,-120.5112 229.5169,-109.9164 222.8951,-118.187 229.498,-120.5112"/>
</g>
<!-- 3 -->
<g id="node4" class="node">
<title>3</title>
<ellipse fill="#836fff" stroke="#000000" cx="18" cy="-18" rx="18" ry="18"/>
<text text-anchor="middle" x="18" y="-14.3" font-family="Times,serif" font-size="14.00" fill="#000000">2</text>
</g>
<!-- 2&#45;&gt;3 -->
<g id="edge3" class="edge">
<title>2&#45;&gt;3</title>
<path fill="none" stroke="#000000" d="M60.2828,-75.5502C52.8673,-65.4571 43.1584,-52.2426 34.9145,-41.022"/>
<polygon fill="#000000" stroke="#000000" points="37.6997,-38.9014 28.9582,-32.915 32.0585,-43.0461 37.6997,-38.9014"/>
</g>
<!-- 4 -->
<g id="node5" class="node">
<title>4</title>
<ellipse fill="#836fff" stroke="#000000" cx="72" cy="-18" rx="18" ry="18"/>
<text text-anchor="middle" x="72" y="-14.3" font-family="Times,serif" font-size="14.00" fill="#000000">3</text>
</g>
<!-- 2&#45;&gt;4 -->
<g id="edge4" class="edge">
<title>2&#45;&gt;4</title>
<path fill="none" stroke="#000000" d="M72,-71.8021C72,-64.0286 72,-54.9471 72,-46.4827"/>
<polygon fill="#000000" stroke="#000000" points="75.5001,-46.2359 72,-36.236 68.5001,-46.236 75.5001,-46.2359"/>
</g>
<!-- 6 -->
<g id="node7" class="node">
<title>6</title>
<ellipse fill="#836fff" stroke="#000000" cx="126" cy="-18" rx="18" ry="18"/>
<text text-anchor="middle" x="126" y="-14.3" font-family="Times,serif" font-size="14.00" fill="#000000">3</text>
</g>
<!-- 5&#45;&gt;6 -->
<g id="edge6" class="edge">
<title>5&#45;&gt;6</title>
<path fill="none" stroke="#000000" d="M167.4998,-75.5502C160.2929,-65.5561 150.8792,-52.5014 142.8397,-41.3526"/>
<polygon fill="#000000" stroke="#000000" points="145.4431,-38.9789 136.7553,-32.915 139.7654,-43.0732 145.4431,-38.9789"/>
</g>
<!-- 7 -->
<g id="node8" class="node">
<title>7</title>
<ellipse fill="#836fff" stroke="#000000" cx="180" cy="-18" rx="18" ry="18"/>
<text text-anchor="middle" x="180" y="-14.3" font-family="Times,serif" font-size="14.00" fill="#000000">4</text>
</g>
<!-- 5&#45;&gt;7 -->
<g id="edge7" class="edge">
<title>5&#45;&gt;7</title>
<path fill="none" stroke="#000000" d="M179.268,-71.8021C179.3737,-64.0286 179.4973,-54.9471 179.6125,-46.4827"/>
<polygon fill="#000000" stroke="#000000" points="183.1154,-46.2827 179.7519,-36.236 176.1161,-46.1874 183.1154,-46.2827"/>
</g>
<!-- 9 -->
<g id="node10" class="node">
<title>9</title>
<ellipse fill="#836fff" stroke="#000000" cx="234" cy="-18" rx="18" ry="18"/>
<text text-anchor="middle" x="234" y="-14.3" font-family="Times,serif" font-size="14.00" fill="#000000">2</text>
</g>
<!-- 8&#45;&gt;9 -->
<g id="edge9" class="edge">
<title>8&#45;&gt;9</title>
<path fill="none" stroke="#000000" d="M235.464,-71.8021C235.2525,-64.0286 235.0054,-54.9471 234.7751,-46.4827"/>
<polygon fill="#000000" stroke="#000000" points="238.267,-46.137 234.4962,-36.236 231.2696,-46.3275 238.267,-46.137"/>
</g>
<!-- 10 -->
<g id="node11" class="node">
<title>10</title>
<ellipse fill="#836fff" stroke="#000000" cx="288" cy="-18" rx="18" ry="18"/>
<text text-anchor="middle" x="288" y="-14.3" font-family="Times,serif" font-size="14.00" fill="#000000">4</text>
</g>
<!-- 8&#45;&gt;10 -->
<g id="edge10" class="edge">
<title>8&#45;&gt;10</title>
<path fill="none" stroke="#000000" d="M247.2832,-75.5502C254.3541,-65.5561 263.5903,-52.5014 271.478,-41.3526"/>
<polygon fill="#000000" stroke="#000000" points="274.5292,-43.0999 277.4477,-32.915 268.8148,-39.057 274.5292,-43.0999"/>
</g>
<!-- 12 -->
<g id="node13" class="node">
<title>12</title>
<ellipse fill="#836fff" stroke="#000000" cx="396" cy="-91.4983" rx="19.4965" ry="19.4965"/>
<text text-anchor="middle" x="396" y="-87.7983" font-family="Times,serif" font-size="14.00" fill="#000000">34</text>
</g>
<!-- 11&#45;&gt;12 -->
<g id="edge12" class="edge">
<title>11&#45;&gt;12</title>
<path fill="none" stroke="#000000" d="M509.0625,-158.6153C485.4618,-144.6053 447.0819,-121.8219 421.6879,-106.7473"/>
<polygon fill="#000000" stroke="#000000" points="423.3568,-103.6678 412.9712,-101.5728 419.7836,-109.6872 423.3568,-103.6678"/>
</g>
<!-- 15 -->
<g id="node16" class="node">
<title>15</title>
<ellipse fill="#836fff" stroke="#000000" cx="502" cy="-91.4983" rx="19.4965" ry="19.4965"/>
<text text-anchor="middle" x="502" y="-87.7983" font-family="Times,serif" font-size="14.00" fill="#000000">13</text>
</g>
<!-- 11&#45;&gt;15 -->
<g id="edge15" class="edge">
<title>11&#45;&gt;15</title>
<path fill="none" stroke="#000000" d="M521.9012,-148.0364C518.7699,-139.1405 515.1565,-128.8749 511.875,-119.5526"/>
<polygon fill="#000000" stroke="#000000" points="515.1049,-118.187 508.4831,-109.9164 508.502,-120.5112 515.1049,-118.187"/>
</g>
<!-- 18 -->
<g id="node19" class="node">
<title>18</title>
<ellipse fill="#836fff" stroke="#000000" cx="559" cy="-91.4983" rx="19.4965" ry="19.4965"/>
<text text-anchor="middle" x="559" y="-87.7983" font-family="Times,serif" font-size="14.00" fill="#000000">14</text>
</g>
<!-- 11&#45;&gt;18 -->
<g id="edge18" class="edge">
<title>11&#45;&gt;18</title>
<path fill="none" stroke="#000000" d="M538.388,-148.0364C541.6312,-139.1405 545.3737,-128.8749 548.7723,-119.5526"/>
<polygon fill="#000000" stroke="#000000" points="552.1484,-120.5104 552.2853,-109.9164 545.5718,-118.1127 552.1484,-120.5104"/>
</g>
<!-- 13 -->
<g id="node14" class="node">
<title>13</title>
<ellipse fill="#836fff" stroke="#000000" cx="342" cy="-18" rx="18" ry="18"/>
<text text-anchor="middle" x="342" y="-14.3" font-family="Times,serif" font-size="14.00" fill="#000000">4</text>
</g>
<!-- 12&#45;&gt;13 -->
<g id="edge13" class="edge">
<title>12&#45;&gt;13</title>
<path fill="none" stroke="#000000" d="M384.2828,-75.5502C376.8673,-65.4571 367.1584,-52.2426 358.9145,-41.022"/>
<polygon fill="#000000" stroke="#000000" points="361.6997,-38.9014 352.9582,-32.915 356.0585,-43.0461 361.6997,-38.9014"/>
</g>
<!-- 14 -->
<g id="node15" class="node">
<title>14</title>
<ellipse fill="#836fff" stroke="#000000" cx="396" cy="-18" rx="18" ry="18"/>
<text text-anchor="middle" x="396" y="-14.3" font-family="Times,serif" font-size="14.00" fill="#000000">3</text>
</g>
<!-- 12&#45;&gt;14 -->
<g id="edge14" class="edge">
<title>12&#45;&gt;14</title>
<path fill="none" stroke="#000000" d="M396,-71.8021C396,-64.0286 396,-54.9471 396,-46.4827"/>
<polygon fill="#000000" stroke="#000000" points="399.5001,-46.2359 396,-36.236 392.5001,-46.236 399.5001,-46.2359"/>
</g>
<!-- 16 -->
<g id="node17" class="node">
<title>16</title>
<ellipse fill="#836fff" stroke="#000000" cx="450" cy="-18" rx="18" ry="18"/>
<text text-anchor="middle" x="450" y="-14.3" font-family="Times,serif" font-size="14.00" fill="#000000">3</text>
</g>
<!-- 15&#45;&gt;16 -->
<g id="edge16" class="edge">
<title>15&#45;&gt;16</title>
<path fill="none" stroke="#000000" d="M490.7168,-75.5502C483.6459,-65.5561 474.4097,-52.5014 466.522,-41.3526"/>
<polygon fill="#000000" stroke="#000000" points="469.1852,-39.057 460.5523,-32.915 463.4708,-43.0999 469.1852,-39.057"/>
</g>
<!-- 17 -->
<g id="node18" class="node">
<title>17</title>
<ellipse fill="#836fff" stroke="#000000" cx="504" cy="-18" rx="18" ry="18"/>
<text text-anchor="middle" x="504" y="-14.3" font-family="Times,serif" font-size="14.00" fill="#000000">1</text>
</g>
<!-- 15&#45;&gt;17 -->
<g id="edge17" class="edge">
<title>15&#45;&gt;17</title>
<path fill="none" stroke="#000000" d="M502.536,-71.8021C502.7475,-64.0286 502.9946,-54.9471 503.2249,-46.4827"/>
<polygon fill="#000000" stroke="#000000" points="506.7304,-46.3275 503.5038,-36.236 499.733,-46.137 506.7304,-46.3275"/>
</g>
<!-- 19 -->
<g id="node20" class="node">
<title>19</title>
<ellipse fill="#836fff" stroke="#000000" cx="558" cy="-18" rx="18" ry="18"/>
<text text-anchor="middle" x="558" y="-14.3" font-family="Times,serif" font-size="14.00" fill="#000000">4</text>
</g>
<!-- 18&#45;&gt;19 -->
<g id="edge19" class="edge">
<title>18&#45;&gt;19</title>
<path fill="none" stroke="#000000" d="M558.732,-71.8021C558.6263,-64.0286 558.5027,-54.9471 558.3875,-46.4827"/>
<polygon fill="#000000" stroke="#000000" points="561.8839,-46.1874 558.2481,-36.236 554.8846,-46.2827 561.8839,-46.1874"/>
</g>
<!-- 20 -->
<g id="node21" class="node">
<title>20</title>
<ellipse fill="#836fff" stroke="#000000" cx="612" cy="-18" rx="18" ry="18"/>
<text text-anchor="middle" x="612" y="-14.3" font-family="Times,serif" font-size="14.00" fill="#000000">1</text>
</g>
<!-- 18&#45;&gt;20 -->
<g id="edge20" class="edge">
<title>18&#45;&gt;20</title>
<path fill="none" stroke="#000000" d="M570.5002,-75.5502C577.7071,-65.5561 587.1208,-52.5014 595.1603,-41.3526"/>
<polygon fill="#000000" stroke="#000000" points="598.2346,-43.0732 601.2447,-32.915 592.5569,-38.9789 598.2346,-43.0732"/>
</g>
<!-- 22 -->
<g id="node23" class="node">
<title>22</title>
<ellipse fill="#836fff" stroke="#000000" cx="718" cy="-91.4983" rx="19.4965" ry="19.4965"/>
<text text-anchor="middle" x="718" y="-87.7983" font-family="Times,serif" font-size="14.00" fill="#000000">42</text>
</g>
<!-- 21&#45;&gt;22 -->
<g id="edge22" class="edge">
<title>21&#45;&gt;22</title>
<path fill="none" stroke="#000000" d="M737.9012,-148.0364C734.7699,-139.1405 731.1565,-128.8749 727.875,-119.5526"/>
<polygon fill="#000000" stroke="#000000" points="731.1049,-118.187 724.4831,-109.9164 724.502,-120.5112 731.1049,-118.187"/>
</g>
<!-- 25 -->
<g id="node26" class="node">
<title>25</title>
<ellipse fill="#836fff" stroke="#000000" cx="775" cy="-91.4983" rx="19.4965" ry="19.4965"/>
<text text-anchor="middle" x="775" y="-87.7983" font-family="Times,serif" font-size="14.00" fill="#000000">14</text>
</g>
<!-- 21&#45;&gt;25 -->
<g id="edge25" class="edge">
<title>21&#45;&gt;25</title>
<path fill="none" stroke="#000000" d="M754.388,-148.0364C757.6312,-139.1405 761.3737,-128.8749 764.7723,-119.5526"/>
<polygon fill="#000000" stroke="#000000" points="768.1484,-120.5104 768.2853,-109.9164 761.5718,-118.1127 768.1484,-120.5104"/>
</g>
<!-- 28 -->
<g id="node29" class="node">
<title>28</title>
<ellipse fill="#836fff" stroke="#000000" cx="882" cy="-91.4983" rx="19.4965" ry="19.4965"/>
<text text-anchor="middle" x="882" y="-87.7983" font-family="Times,serif" font-size="14.00" fill="#000000">12</text>
</g>
<!-- 21&#45;&gt;28 -->
<g id="edge28" class="edge">
<title>21&#45;&gt;28</title>
<path fill="none" stroke="#000000" d="M766.952,-158.7896C790.9744,-144.739 830.3621,-121.7012 856.2385,-106.5661"/>
<polygon fill="#000000" stroke="#000000" points="858.2424,-109.4488 865.1072,-101.3788 854.7082,-103.4065 858.2424,-109.4488"/>
</g>
<!-- 23 -->
<g id="node24" class="node">
<title>23</title>
<ellipse fill="#836fff" stroke="#000000" cx="666" cy="-18" rx="18" ry="18"/>
<text text-anchor="middle" x="666" y="-14.3" font-family="Times,serif" font-size="14.00" fill="#000000">2</text>
</g>
<!-- 22&#45;&gt;23 -->
<g id="edge23" class="edge">
<title>22&#45;&gt;23</title>
<path fill="none" stroke="#000000" d="M706.7168,-75.5502C699.6459,-65.5561 690.4097,-52.5014 682.522,-41.3526"/>
<polygon fill="#000000" stroke="#000000" points="685.1852,-39.057 676.5523,-32.915 679.4708,-43.0999 685.1852,-39.057"/>
</g>
<!-- 24 -->
<g id="node25" class="node">
<title>24</title>
<ellipse fill="#836fff" stroke="#000000" cx="720" cy="-18" rx="18" ry="18"/>
<text text-anchor="middle" x="720" y="-14.3" font-family="Times,serif" font-size="14.00" fill="#000000">4</text>
</g>
<!-- 22&#45;&gt;24 -->
<g id="edge24" class="edge">
<title>22&#45;&gt;24</title>
<path fill="none" stroke="#000000" d="M718.536,-71.8021C718.7475,-64.0286 718.9946,-54.9471 719.2249,-46.4827"/>
<polygon fill="#000000" stroke="#000000" points="722.7304,-46.3275 719.5038,-36.236 715.733,-46.137 722.7304,-46.3275"/>
</g>
<!-- 26 -->
<g id="node27" class="node">
<title>26</title>
<ellipse fill="#836fff" stroke="#000000" cx="774" cy="-18" rx="18" ry="18"/>
<text text-anchor="middle" x="774" y="-14.3" font-family="Times,serif" font-size="14.00" fill="#000000">4</text>
</g>
<!-- 25&#45;&gt;26 -->
<g id="edge26" class="edge">
<title>25&#45;&gt;26</title>
<path fill="none" stroke="#000000" d="M774.732,-71.8021C774.6263,-64.0286 774.5027,-54.9471 774.3875,-46.4827"/>
<polygon fill="#000000" stroke="#000000" points="777.8839,-46.1874 774.2481,-36.236 770.8846,-46.2827 777.8839,-46.1874"/>
</g>
<!-- 27 -->
<g id="node28" class="node">
<title>27</title>
<ellipse fill="#836fff" stroke="#000000" cx="828" cy="-18" rx="18" ry="18"/>
<text text-anchor="middle" x="828" y="-14.3" font-family="Times,serif" font-size="14.00" fill="#000000">1</text>
</g>
<!-- 25&#45;&gt;27 -->
<g id="edge27" class="edge">
<title>25&#45;&gt;27</title>
<path fill="none" stroke="#000000" d="M786.5002,-75.5502C793.7071,-65.5561 803.1208,-52.5014 811.1603,-41.3526"/>
<polygon fill="#000000" stroke="#000000" points="814.2346,-43.0732 817.2447,-32.915 808.5569,-38.9789 814.2346,-43.0732"/>
</g>
<!-- 29 -->
<g id="node30" class="node">
<title>29</title>
<ellipse fill="#836fff" stroke="#000000" cx="882" cy="-18" rx="18" ry="18"/>
<text text-anchor="middle" x="882" y="-14.3" font-family="Times,serif" font-size="14.00" fill="#000000">2</text>
</g>
<!-- 28&#45;&gt;29 -->
<g id="edge29" class="edge">
<title>28&#45;&gt;29</title>
<path fill="none" stroke="#000000" d="M882,-71.8021C882,-64.0286 882,-54.9471 882,-46.4827"/>
<polygon fill="#000000" stroke="#000000" points="885.5001,-46.2359 882,-36.236 878.5001,-46.236 885.5001,-46.2359"/>
</g>
<!-- 30 -->
<g id="node31" class="node">
<title>30</title>
<ellipse fill="#836fff" stroke="#000000" cx="936" cy="-18" rx="18" ry="18"/>
<text text-anchor="middle" x="936" y="-14.3" font-family="Times,serif" font-size="14.00" fill="#000000">1</text>
</g>
<!-- 28&#45;&gt;30 -->
<g id="edge30" class="edge">
<title>28&#45;&gt;30</title>
<path fill="none" stroke="#000000" d="M893.7172,-75.5502C901.1327,-65.4571 910.8416,-52.2426 919.0855,-41.022"/>
<polygon fill="#000000" stroke="#000000" points="921.9415,-43.0461 925.0418,-32.915 916.3003,-38.9014 921.9415,-43.0461"/>
</g>
<!-- 32 -->
<g id="node33" class="node">
<title>32</title>
<ellipse fill="#836fff" stroke="#000000" cx="1042" cy="-91.4983" rx="19.4965" ry="19.4965"/>
<text text-anchor="middle" x="1042" y="-87.7983" font-family="Times,serif" font-size="14.00" fill="#000000">32</text>
</g>
<!-- 31&#45;&gt;32 -->
<g id="edge32" class="edge">
<title>31&#45;&gt;32</title>
<path fill="none" stroke="#000000" d="M1061.9012,-148.0364C1058.7699,-139.1405 1055.1565,-128.8749 1051.875,-119.5526"/>
<polygon fill="#000000" stroke="#000000" points="1055.1049,-118.187 1048.4831,-109.9164 1048.502,-120.5112 1055.1049,-118.187"/>
</g>
<!-- 35 -->
<g id="node36" class="node">
<title>35</title>
<ellipse fill="#836fff" stroke="#000000" cx="1099" cy="-91.4983" rx="19.4965" ry="19.4965"/>
<text text-anchor="middle" x="1099" y="-87.7983" font-family="Times,serif" font-size="14.00" fill="#000000">13</text>
</g>
<!-- 31&#45;&gt;35 -->
<g id="edge35" class="edge">
<title>31&#45;&gt;35</title>
<path fill="none" stroke="#000000" d="M1078.388,-148.0364C1081.6312,-139.1405 1085.3737,-128.8749 1088.7723,-119.5526"/>
<polygon fill="#000000" stroke="#000000" points="1092.1484,-120.5104 1092.2853,-109.9164 1085.5718,-118.1127 1092.1484,-120.5104"/>
</g>
<!-- 38 -->
<g id="node39" class="node">
<title>38</title>
<ellipse fill="#836fff" stroke="#000000" cx="1206" cy="-91.4983" rx="19.4965" ry="19.4965"/>
<text text-anchor="middle" x="1206" y="-87.7983" font-family="Times,serif" font-size="14.00" fill="#000000">12</text>
</g>
<!-- 31&#45;&gt;38 -->
<g id="edge38" class="edge">
<title>31&#45;&gt;38</title>
<path fill="none" stroke="#000000" d="M1090.952,-158.7896C1114.9744,-144.739 1154.3621,-121.7012 1180.2385,-106.5661"/>
<polygon fill="#000000" stroke="#000000" points="1182.2424,-109.4488 1189.1072,-101.3788 1178.7082,-103.4065 1182.2424,-109.4488"/>
</g>
<!-- 33 -->
<g id="node34" class="node">
<title>33</title>
<ellipse fill="#836fff" stroke="#000000" cx="990" cy="-18" rx="18" ry="18"/>
<text text-anchor="middle" x="990" y="-14.3" font-family="Times,serif" font-size="14.00" fill="#000000">2</text>
</g>
<!-- 32&#45;&gt;33 -->
<g id="edge33" class="edge">
<title>32&#45;&gt;33</title>
<path fill="none" stroke="#000000" d="M1030.7168,-75.5502C1023.6459,-65.5561 1014.4097,-52.5014 1006.522,-41.3526"/>
<polygon fill="#000000" stroke="#000000" points="1009.1852,-39.057 1000.5523,-32.915 1003.4708,-43.0999 1009.1852,-39.057"/>
</g>
<!-- 34 -->
<g id="node35" class="node">
<title>34</title>
<ellipse fill="#836fff" stroke="#000000" cx="1044" cy="-18" rx="18" ry="18"/>
<text text-anchor="middle" x="1044" y="-14.3" font-family="Times,serif" font-size="14.00" fill="#000000">3</text>
</g>
<!-- 32&#45;&gt;34 -->
<g id="edge34" class="edge">
<title>32&#45;&gt;34</title>
<path fill="none" stroke="#000000" d="M1042.536,-71.8021C1042.7475,-64.0286 1042.9946,-54.9471 1043.2249,-46.4827"/>
<polygon fill="#000000" stroke="#000000" points="1046.7304,-46.3275 1043.5038,-36.236 1039.733,-46.137 1046.7304,-46.3275"/>
</g>
<!-- 36 -->
<g id="node37" class="node">
<title>36</title>
<ellipse fill="#836fff" stroke="#000000" cx="1098" cy="-18" rx="18" ry="18"/>
<text text-anchor="middle" x="1098" y="-14.3" font-family="Times,serif" font-size="14.00" fill="#000000">3</text>
</g>
<!-- 35&#45;&gt;36 -->
<g id="edge36" class="edge">
<title>35&#45;&gt;36</title>
<path fill="none" stroke="#000000" d="M1098.732,-71.8021C1098.6263,-64.0286 1098.5027,-54.9471 1098.3875,-46.4827"/>
<polygon fill="#000000" stroke="#000000" points="1101.8839,-46.1874 1098.2481,-36.236 1094.8846,-46.2827 1101.8839,-46.1874"/>
</g>
<!-- 37 -->
<g id="node38" class="node">
<title>37</title>
<ellipse fill="#836fff" stroke="#000000" cx="1152" cy="-18" rx="18" ry="18"/>
<text text-anchor="middle" x="1152" y="-14.3" font-family="Times,serif" font-size="14.00" fill="#000000">1</text>
</g>
<!-- 35&#45;&gt;37 -->
<g id="edge37" class="edge">
<title>35&#45;&gt;37</title>
<path fill="none" stroke="#000000" d="M1110.5002,-75.5502C1117.7071,-65.5561 1127.1208,-52.5014 1135.1603,-41.3526"/>
<polygon fill="#000000" stroke="#000000" points="1138.2346,-43.0732 1141.2447,-32.915 1132.5569,-38.9789 1138.2346,-43.0732"/>
</g>
<!-- 39 -->
<g id="node40" class="node">
<title>39</title>
<ellipse fill="#836fff" stroke="#000000" cx="1206" cy="-18" rx="18" ry="18"/>
<text text-anchor="middle" x="1206" y="-14.3" font-family="Times,serif" font-size="14.00" fill="#000000">2</text>
</g>
<!-- 38&#45;&gt;39 -->
<g id="edge39" class="edge">
<title>38&#45;&gt;39</title>
<path fill="none" stroke="#000000" d="M1206,-71.8021C1206,-64.0286 1206,-54.9471 1206,-46.4827"/>
<polygon fill="#000000" stroke="#000000" points="1209.5001,-46.2359 1206,-36.236 1202.5001,-46.236 1209.5001,-46.2359"/>
</g>
<!-- 40 -->
<g id="node41" class="node">
<title>40</title>
<ellipse fill="#836fff" stroke="#000000" cx="1260" cy="-18" rx="18" ry="18"/>
<text text-anchor="middle" x="1260" y="-14.3" font-family="Times,serif" font-size="14.00" fill="#000000">1</text>
</g>
<!-- 38&#45;&gt;40 -->
<g id="edge40" class="edge">
<title>38&#45;&gt;40</title>
<path fill="none" stroke="#000000" d="M1217.7172,-75.5502C1225.1327,-65.4571 1234.8416,-52.2426 1243.0855,-41.022"/>
<polygon fill="#000000" stroke="#000000" points="1245.9415,-43.0461 1249.0418,-32.915 1240.3003,-38.9014 1245.9415,-43.0461"/>
</g>
</g>
</svg>
